<svg width="23" height="24" viewBox="0 0 23 24" fill="none" xmlns="http://www.w3.org/2000/svg">
<path d="M10.7545 5.24774C11.1659 4.83514 11.8341 4.83514 12.2455 5.24774C12.5469 5.55008 13.0011 5.64043 13.3953 5.47645C13.9332 5.25267 14.5506 5.5084 14.7727 6.04701C14.9355 6.44168 15.3205 6.69896 15.7474 6.69831C16.3301 6.69742 16.8026 7.16995 16.8017 7.75256C16.801 8.17948 17.0583 8.56452 17.453 8.7273C17.9916 8.94944 18.2473 9.56682 18.0236 10.1047C17.8596 10.4989 17.9499 10.9531 18.2523 11.2545C18.6649 11.6659 18.6649 12.3341 18.2523 12.7455C17.9499 13.0469 17.8596 13.5011 18.0236 13.8953C18.2473 14.4332 17.9916 15.0506 17.453 15.2727C17.0583 15.4355 16.801 15.8205 16.8017 16.2474C16.8026 16.8301 16.3301 17.3026 15.7474 17.3017C15.3205 17.301 14.9355 17.5583 14.7727 17.953C14.5506 18.4916 13.9332 18.7473 13.3953 18.5236C13.0011 18.3596 12.5469 18.4499 12.2455 18.7523C11.8341 19.1649 11.1659 19.1649 10.7545 18.7523C10.4531 18.4499 9.99893 18.3596 9.60475 18.5236C9.06682 18.7473 8.44944 18.4916 8.2273 17.953C8.06452 17.5583 7.67949 17.301 7.25256 17.3017C6.66995 17.3026 6.19742 16.8301 6.19831 16.2474C6.19896 15.8205 5.94168 15.4355 5.54701 15.2727C5.0084 15.0506 4.75267 14.4332 4.97645 13.8953C5.14043 13.5011 5.05008 13.0469 4.74774 12.7455C4.33514 12.3341 4.33514 11.6659 4.74774 11.2545C5.05008 10.9531 5.14043 10.4989 4.97645 10.1047C4.75267 9.56682 5.0084 8.94944 5.54701 8.7273C5.94168 8.56452 6.19896 8.17949 6.19831 7.75256C6.19742 7.16994 6.66994 6.69742 7.25256 6.69831C7.67948 6.69896 8.06452 6.44168 8.2273 6.04701C8.44944 5.5084 9.06682 5.25267 9.60475 5.47645C9.99893 5.64043 10.4531 5.55008 10.7545 5.24774Z" fill="#4178FA" stroke="url(#paint0_linear_8405_46137)"/>
<path d="M10.1075 14.3254C10.1742 14.3847 10.2521 14.4307 10.3362 14.4617C10.4203 14.4927 10.5098 14.5084 10.5997 14.5084C10.6896 14.5084 10.7791 14.4927 10.8632 14.4617C10.9473 14.4307 11.0252 14.3847 11.0919 14.3254L14.5915 11.2148C14.6582 11.1555 14.7127 11.0837 14.7504 11.0028C14.7881 10.9219 14.8079 10.8341 14.8079 10.7447C14.8079 10.6553 14.7881 10.5675 14.7504 10.4865C14.7127 10.4057 14.6582 10.3339 14.5915 10.2746C14.5248 10.2153 14.4469 10.1694 14.3628 10.1384C14.2787 10.1074 14.1892 10.0917 14.0994 10.0917C14.0095 10.0917 13.9201 10.1074 13.836 10.1384C13.7519 10.1694 13.674 10.2153 13.6073 10.2746L13.6072 10.2746L10.5997 12.9483L9.59201 12.0521L9.59196 12.0521C9.45771 11.9327 9.28036 11.8692 9.09984 11.8692C8.91932 11.8692 8.74197 11.9327 8.60772 12.0521C8.47266 12.1721 8.39128 12.3406 8.39128 12.5222C8.39128 12.7038 8.47266 12.8723 8.60772 12.9923L10.1075 14.3254ZM10.1075 14.3254L10.246 14.1697M10.1075 14.3254L10.1076 14.3254L10.246 14.1697M10.246 14.1697C10.2924 14.211 10.3476 14.2438 10.4082 14.2662C10.4689 14.2885 10.534 14.3 10.5997 14.3C10.6654 14.3 10.7305 14.2885 10.7912 14.2662C10.8518 14.2438 10.907 14.211 10.9534 14.1697L10.5997 13.2271L9.45356 12.2078C9.35975 12.1244 9.23251 12.0776 9.09984 12.0776C8.96717 12.0776 8.83994 12.1244 8.74612 12.2078C8.65231 12.2912 8.59961 12.4043 8.59961 12.5222C8.59961 12.6401 8.65231 12.7532 8.74612 12.8366L10.246 14.1697Z" fill="url(#paint1_linear_8405_46137)" stroke="url(#paint2_linear_8405_46137)" stroke-width="0.416667"/>
<defs>
<linearGradient id="paint0_linear_8405_46137" x1="7.5" y1="4.5" x2="19.75" y2="29.25" gradientUnits="userSpaceOnUse">
<stop stop-color="#BCEDFE"/>
<stop offset="1" stop-color="#87C5FE"/>
</linearGradient>
<linearGradient id="paint1_linear_8405_46137" x1="9.99961" y1="10.3" x2="12.4447" y2="17.7101" gradientUnits="userSpaceOnUse">
<stop stop-color="#BCEDFE"/>
<stop offset="1" stop-color="#87C5FE"/>
</linearGradient>
<linearGradient id="paint2_linear_8405_46137" x1="9.99961" y1="10.3" x2="12.4447" y2="17.7101" gradientUnits="userSpaceOnUse">
<stop stop-color="#BCEDFE"/>
<stop offset="1" stop-color="#87C5FE"/>
</linearGradient>
</defs>
</svg>
