<svg width="16" height="17" viewBox="0 0 16 17" fill="none" xmlns="http://www.w3.org/2000/svg">
<path fill-rule="evenodd" clip-rule="evenodd" d="M4.66634 1.70573C4.66634 1.33754 4.96482 1.03906 5.33301 1.03906C5.7012 1.03906 5.99967 1.33754 5.99967 1.70573V2.70573H4.66634V1.70573ZM11.333 2.70573H11.9997C13.4724 2.70573 14.6663 3.89964 14.6663 5.3724V8.03906V13.3724C14.6663 14.8452 13.4724 16.0391 11.9997 16.0391H3.99967C2.52692 16.0391 1.33301 14.8452 1.33301 13.3724V8.03906V5.3724C1.33301 5.28035 1.33767 5.18939 1.34678 5.09974C1.48334 3.75506 2.61896 2.70573 3.99967 2.70573H4.66634V4.70573C4.66634 5.07392 4.96482 5.3724 5.33301 5.3724C5.7012 5.3724 5.99967 5.07392 5.99967 4.70573V2.70573H9.99967V4.70573C9.99967 5.07392 10.2982 5.3724 10.6663 5.3724C11.0345 5.3724 11.333 5.07392 11.333 4.70573V2.70573ZM11.333 2.70573V1.70573C11.333 1.33754 11.0345 1.03906 10.6663 1.03906C10.2982 1.03906 9.99967 1.33754 9.99967 1.70573V2.70573H11.333ZM2.66634 8.03906V13.3724C2.66634 14.1088 3.26329 14.7057 3.99967 14.7057H11.9997C12.7361 14.7057 13.333 14.1088 13.333 13.3724V8.03906H2.66634Z" fill="#FEFEFE" fill-opacity="0.996078"/>
</svg>
