<svg width="33" height="32" viewBox="0 0 33 32" fill="none" xmlns="http://www.w3.org/2000/svg">
<path d="M28.167 15.7355C28.167 19.1209 26.9645 22.4093 24.7805 24.9959C22.5966 27.583 19.5561 29.3202 16.2187 29.8877C16.1845 29.8934 16.1495 29.8934 16.1152 29.8877C12.7778 29.3202 9.73742 27.583 7.55398 24.9959C5.36947 22.4093 4.16699 19.1209 4.16699 15.7355C4.16699 12.8584 4.16699 9.98123 4.16699 7.10408C4.16699 6.2964 4.80722 5.63824 5.61216 5.57189C8.02179 5.37326 10.1713 4.89614 11.9904 4.1484C13.1868 3.65659 14.4 3.04473 15.2423 2.56948C15.8071 2.2508 16.5268 2.25083 17.0916 2.56963C17.9337 3.045 19.1465 3.65696 20.3425 4.1484C22.1621 4.89616 24.3123 5.37292 26.7221 5.57172C27.5269 5.63812 28.167 6.29559 28.167 7.10316C28.167 9.74441 28.167 15.1327 28.167 15.7355Z" fill="url(#paint0_linear_9034_53633)"/>
<path fill-rule="evenodd" clip-rule="evenodd" d="M15.667 19.5C16.8245 19.5 17.8985 19.1424 18.7845 18.5317L21.4599 21.2071C21.8504 21.5976 22.4836 21.5976 22.8741 21.2071C23.2646 20.8166 23.2646 20.1834 22.8741 19.7929L20.1987 17.1175C20.8094 16.2315 21.167 15.1575 21.167 14C21.167 10.9624 18.7046 8.5 15.667 8.5C12.6294 8.5 10.167 10.9624 10.167 14C10.167 17.0376 12.6294 19.5 15.667 19.5ZM15.667 17.5C17.6 17.5 19.167 15.933 19.167 14C19.167 13.6413 19.113 13.2952 19.0128 12.9694C18.7384 13.5771 18.1271 14 17.417 14C16.4505 14 15.667 13.2165 15.667 12.25C15.667 11.5399 16.0899 10.9286 16.6976 10.6542C16.3718 10.554 16.0257 10.5 15.667 10.5C13.734 10.5 12.167 12.067 12.167 14C12.167 15.933 13.734 17.5 15.667 17.5Z" fill="url(#paint1_linear_9034_53633)"/>
<defs>
<linearGradient id="paint0_linear_9034_53633" x1="16.1667" y1="2" x2="16.1667" y2="29.8963" gradientUnits="userSpaceOnUse">
<stop stop-color="#CED4EB"/>
<stop offset="1" stop-color="#ACB3CD"/>
</linearGradient>
<linearGradient id="paint1_linear_9034_53633" x1="16.167" y1="8.5" x2="16.167" y2="20.5" gradientUnits="userSpaceOnUse">
<stop stop-color="#606270"/>
<stop offset="1" stop-color="#494A57"/>
</linearGradient>
</defs>
</svg>
